<svg xmlns="http://www.w3.org/2000/svg" height="24" viewBox="0 -960 960 960" width="24"><path d="M450.001-783.076v-139.998h59.998v139.998h-59.998Zm-160.076 52.769L184.157-836.075l42.768-42.768 105.768 105.768-42.768 42.768Zm-38.386 478.768h113.846q14.711 0 24.663-9.948T400-286.141q0-14.705-9.952-24.667-9.952-9.961-24.663-9.961H251.539v69.23Zm343.076 0h113.846v-69.23H594.615q-14.711 0-24.663 9.948T560-286.168q0 14.706 9.952 24.667 9.952 9.962 24.663 9.962ZM677.537-515l132.462-131.846-33.538-33.538-98.924 97.693-41.692-41.693-33.538 34.153L677.537-515Zm28.616 94.614q-74.923 0-127.461-52.538t-52.538-127.461q0-74.922 52.538-127.46t127.461-52.538q74.922 0 127.46 52.538t52.538 127.46q0 74.923-52.538 127.461t-127.46 52.538ZM170.001-60.001q-12.75 0-21.375-8.625t-8.625-21.375v-306.922l81.693-233.076q4.461-13.769 16.384-21.884 11.923-8.116 26.538-8.116h113.847v-70.768h96.767q-17.461 28.615-27.115 61.326t-9.654 69.056v.385H274.769l-61.692 167.693h286.77q38.077 47.384 91.73 73.499 53.653 26.115 114.576 26.115 30.077 0 58.423-6.308t55.423-19.154v268.154q0 12.75-8.625 21.375t-21.375 8.625h-24.614q-12.75 0-21.375-8.625-8.624-8.625-8.624-21.375v-50H224.614v50q0 12.75-8.625 21.375-8.624 8.625-21.374 8.625h-24.614Z"/></svg>